<?xml version="1.0" encoding="UTF-8" standalone="no"?>
<svg
   xmlns:dc="http://purl.org/dc/elements/1.1/"
   xmlns:cc="http://creativecommons.org/ns#"
   xmlns:rdf="http://www.w3.org/1999/02/22-rdf-syntax-ns#"
   xmlns:svg="http://www.w3.org/2000/svg"
   xmlns="http://www.w3.org/2000/svg"
   viewBox="0 0 720 720"
   height="720"
   width="720"
   xml:space="preserve"
   id="svg2"
   version="1.1"><metadata
     id="metadata8"><rdf:RDF><cc:Work
         rdf:about=""><dc:format>image/svg+xml</dc:format><dc:type
           rdf:resource="http://purl.org/dc/dcmitype/StillImage" /></cc:Work></rdf:RDF></metadata><defs
     id="defs6" /><g
     transform="matrix(1.3333333,0,0,-1.3333333,0,698.54667)"
     id="g10"><g
       transform="scale(0.1)"
       id="g12"><path
         id="path14"
         style="fill:#FFFFFF;fill-opacity:1;fill-rule:nonzero;stroke:none"
         d="m 2307.14,2684.3 c 0,1022.36 498.95,1907.11 1983.55,1907.11 0,-1024.54 -673.96,-1907.11 -1983.55,-1907.11" /><path
         id="path16"
         style="fill:#FFFFFF;fill-opacity:1;fill-rule:nonzero;stroke:none"
         d="m 4685.79,0 c 278.09,0 491.78,39.582 711.3,120.352 0,809.078 -482.67,1387.238 -1335.23,1803.868 -652.43,327.18 -1455.48,496.57 -2187.85,496.57 321.36,964.53 87.12,2161.37 -224.31,2818.33 C 1304.69,4550.86 1089.33,3370.91 1420.61,2410.91 770.051,2363.48 254.141,2080.09 35.8672,1706.42 c -16.4883,-28.5 -49.5117,-89.25 -29.75001,-99.65 15.55081,-8.32 40.72261,17.11 56.26951,31.31 235.0743,217.6 546.3403,323.64 845.1763,323.64 690.657,0 1178.227,-573.17 1522.717,-917.46 C 3170.66,303.93 3894.34,-1.50781 4685.79,0" /></g></g></svg>